<svg width="50" height="50" viewBox="0 0 50 50" fill="none" xmlns="http://www.w3.org/2000/svg">
<rect x="0.5" y="0.5" width="49" height="49" rx="4.5" stroke="#BCBCBC"/>
<path d="M26.06 21L26.975 22H29V28H21V22H23.025L23.94 21H26.06V21ZM26.5 20H23.5L22.585 21H21C20.45 21 20 21.45 20 22V28C20 28.55 20.45 29 21 29H29C29.55 29 30 28.55 30 28V22C30 21.45 29.55 21 29 21H27.415L26.5 20ZM25 23.5C25.825 23.5 26.5 24.175 26.5 25C26.5 25.825 25.825 26.5 25 26.5C24.175 26.5 23.5 25.825 23.5 25C23.5 24.175 24.175 23.5 25 23.5ZM25 22.5C23.62 22.5 22.5 23.62 22.5 25C22.5 26.38 23.62 27.5 25 27.5C26.38 27.5 27.5 26.38 27.5 25C27.5 23.62 26.38 22.5 25 22.5Z" fill="#BCBCBC"/>
</svg>
