<svg width="20" height="15" viewBox="0 0 20 15" fill="none" xmlns="http://www.w3.org/2000/svg">
<path d="M3.53846 1.3125H1.57692C1.47115 1.3125 1.38462 1.39688 1.38462 1.5V13.5C1.38462 13.6031 1.47115 13.6875 1.57692 13.6875H3.52404C3.90385 13.6875 4.22115 13.9875 4.23077 14.3438C4.23558 14.5266 4.16827 14.6813 4.03365 14.8125C3.90385 14.9437 3.64904 15 3.46154 15H0.865385C0.384615 15 0 14.7188 0 14.25V0.75C0 0.28125 0.336538 0 0.817308 0H3.52404C3.90385 0 4.22115 0.24375 4.23077 0.599999C4.23558 0.782812 4.16827 0.951563 4.03365 1.08281C3.90385 1.21406 3.72596 1.3125 3.53846 1.3125ZM19.1827 15H16.476C16.0192 15 15.6538 14.6109 15.8029 14.1422C15.8125 14.1094 15.8269 14.0813 15.8413 14.0531C15.9712 13.8094 16.2067 13.6875 16.4615 13.6875H18.4231C18.5288 13.6875 18.6154 13.6031 18.6154 13.5V1.50469C18.6154 1.40156 18.5288 1.31719 18.4231 1.31719H16.476C16.0962 1.31719 15.7788 1.02656 15.7692 0.665626C15.7644 0.482813 15.8317 0.309375 15.9663 0.178124C16.0962 0.046874 16.274 0 16.4615 0H19.1827C19.6635 0 20 0.28125 20 0.768749V14.25C20 14.7188 19.6635 15 19.1827 15Z" fill="black"/>
<path d="M3.58177 11.25C3.21158 11.25 2.90869 10.9547 2.90869 10.5984V4.40625C2.90869 4.04531 3.21158 3.75469 3.58177 3.75469C3.95196 3.75469 4.25485 4.05 4.25485 4.40625V10.5984C4.25485 10.9547 3.95196 11.25 3.58177 11.25ZM16.4183 3.75C16.7885 3.75 17.0914 4.04531 17.0914 4.40156V10.5984C17.0914 10.9594 16.7885 11.25 16.4183 11.25C16.0481 11.25 15.7452 10.9547 15.7452 10.5984V4.40625C15.7452 4.04531 16.0481 3.75 16.4183 3.75ZM13.3895 12.75C13.0193 12.75 12.7164 12.4453 12.7164 12.075V2.92969C12.7164 2.55469 13.0193 2.25469 13.3895 2.25469C13.7597 2.25469 14.0625 2.55938 14.0625 2.92969V12.075C14.0625 12.4453 13.7597 12.75 13.3895 12.75ZM6.61061 12.75C6.24042 12.75 5.93754 12.4453 5.93754 12.075V2.92969C5.93754 2.55469 6.24042 2.25469 6.61061 2.25469C6.98081 2.25469 7.28369 2.55938 7.28369 2.92969V12.075C7.28369 12.4453 6.98561 12.75 6.61061 12.75ZM10 12C9.62985 12 9.32696 11.7 9.32696 11.3344V3.67031C9.32696 3.30469 9.62985 3.00469 10 3.00469C10.3702 3.00469 10.6731 3.30469 10.6731 3.67031V11.3344C10.6731 11.7 10.3702 12 10 12Z" fill="black"/>
</svg>
